HIERARCHY
ROOT Hips
{
    OFFSET 0.000000 0.000000 0.000000
    CHANNELS 6 Xposition Yposition Zposition Zrotation Xrotation Yrotation
    JOINT Spine
    {
        OFFSET -0.000000 14.517291 0.000000
        CHANNELS 3 Zrotation Xrotation Yrotation
        JOINT Spine1
        {
            OFFSET -0.000000 37.558300 0.000000
            CHANNELS 3 Zrotation Xrotation Yrotation
            JOINT Neck
            {
                OFFSET -0.000000 37.404057 3.400369
                CHANNELS 3 Zrotation Xrotation Yrotation
                JOINT Head
                {
                    OFFSET -0.000000 24.785618 -3.540803
                    CHANNELS 3 Zrotation Xrotation Yrotation
                    End Site
                    {
                        OFFSET -0.000000 35.408028 0.000000
                    }
                }
            }
            JOINT LeftShoulder
            {
                OFFSET 6.992933 33.973492 -0.192664
                CHANNELS 3 Zrotation Xrotation Yrotation
                JOINT LeftArm
                {
                    OFFSET 21.527611 0.000000 0.000000
                    CHANNELS 3 Zrotation Xrotation Yrotation
                    JOINT LeftForeArm
                    {
                        OFFSET 56.353916 0.000000 0.000000
                        CHANNELS 3 Zrotation Xrotation Yrotation
                        JOINT LeftHand
                        {
                            OFFSET 47.774071 0.000000 0.000000
                            CHANNELS 3 Zrotation Xrotation Yrotation
                            End Site
                            {
                                OFFSET 26.556021 0.000000 0.000000
                            }
                        }
                    }
                }
            }
            JOINT RightShoulder
            {
                OFFSET -7.065357 33.973492 -0.192664
                CHANNELS 3 Zrotation Xrotation Yrotation
                JOINT RightArm
                {
                    OFFSET -21.527611 0.000000 0.000000
                    CHANNELS 3 Zrotation Xrotation Yrotation
                    JOINT RightForeArm
                    {
                        OFFSET -56.353916 0.000000 0.000000
                        CHANNELS 3 Zrotation Xrotation Yrotation
                        JOINT RightHand
                        {
                            OFFSET -47.774071 0.000000 0.000000
                            CHANNELS 3 Zrotation Xrotation Yrotation
                            End Site
                            {
                                OFFSET -26.556021 0.000000 0.000000
                            }
                        }
                    }
                }
            }
        }
    }
    JOINT LeftUpLeg
    {
        OFFSET 17.704014 0.000000 0.000000
        CHANNELS 3 Zrotation Xrotation Yrotation
        JOINT LeftLeg
        {
            OFFSET -0.000000 -81.181816 0.000000
            CHANNELS 3 Zrotation Xrotation Yrotation
            JOINT LeftFoot
            {
                OFFSET -0.000000 -62.821102 0.000000
                CHANNELS 3 Zrotation Xrotation Yrotation
                JOINT LeftToeBase
                {
                    OFFSET -0.000000 -11.507608 26.556021
                    CHANNELS 3 Zrotation Xrotation Yrotation
                    End Site
                    {
                        OFFSET -0.000000 0.000000 7.081605
                    }
                }
            }
        }
    }
    JOINT RightUpLeg
    {
        OFFSET -17.704014 0.000000 0.000000
        CHANNELS 3 Zrotation Xrotation Yrotation
        JOINT RightLeg
        {
            OFFSET -0.000000 -81.181816 0.000000
            CHANNELS 3 Zrotation Xrotation Yrotation
            JOINT RightFoot
            {
                OFFSET -0.000000 -62.821102 0.000000
                CHANNELS 3 Zrotation Xrotation Yrotation
                JOINT RightToeBase
                {
                    OFFSET -0.000000 -11.507608 26.556021
                    CHANNELS 3 Zrotation Xrotation Yrotation
                    End Site
                    {
                        OFFSET -0.000000 0.000000 7.081605
                    }
                }
            }
        }
    }
}
MOTION
Frames:    8
Frame Time:    0.008333
-33.290230    153.337112    -105.347870    -2.188522    -3.366467    30.789190    1.075031    -0.349371    0.085604    -6.456696    1.145282    0.092446    5.456161    -0.422729    -15.295124    11.485764    2.431200    -15.406535    6.185820    7.917565    -16.475180    -35.559559    21.312538    -49.895374    -5.307765    -12.393295    -116.949272    0.854650    -20.749863    -6.970773    -15.456205    -4.240173    -5.452652    17.663591    -21.288578    48.007084    -13.645205    -15.969822    46.400146    5.244750    -8.712798    32.961411    27.491861    -8.835758    -0.142572    -11.806015    28.677307    -18.023529    -9.143825    -20.185768    43.838966    0.000000    0.000000    0.000000    -20.555504    -12.227385    -14.911226    9.094395    23.954720    -15.625616    10.683704    2.018991    -16.981808    0.000000    0.000000    0.000000    
-33.319111    153.324936    -105.265686    -2.179817    -3.389929    30.809343    1.062172    -0.342125    0.098316    -6.443176    1.138125    0.097615    5.439540    -0.415164    -15.303137    11.501473    2.446300    -15.411685    6.171957    7.927620    -16.465025    -35.552288    21.311764    -49.867409    -5.314195    -12.371903    -116.960564    0.835990    -20.739729    -6.955058    -15.457936    -4.219808    -5.455178    17.667797    -21.277895    47.989956    -13.665116    -15.965832    46.406288    5.236386    -8.703034    32.935070    27.516766    -8.793768    -0.182865    -11.806790    28.662113    -17.999014    -9.139832    -20.182005    43.805252    0.000000    0.000000    0.000000    -20.550995    -12.218851    -14.904868    9.139210    24.047369    -15.628386    10.627621    1.951790    -16.997141    0.000000    0.000000    0.000000    
-33.354202    153.312119    -105.174164    -2.171803    -3.415439    30.842690    1.058616    -0.333281    0.098175    -6.448027    1.130902    0.096684    5.459947    -0.383534    -15.404407    11.502600    2.468693    -15.521492    6.171751    7.941537    -16.446928    -35.538433    21.333099    -49.844585    -5.306376    -12.393216    -116.975235    0.812233    -20.749071    -6.945878    -15.450019    -4.185013    -5.462842    17.689142    -21.279034    47.994541    -13.674575    -15.966214    46.415413    5.232916    -8.698824    32.942459    27.550777    -8.757106    -0.254033    -11.825885    28.633509    -17.983234    -9.171936    -20.194508    43.811798    0.000000    0.000000    0.000000    -20.543488    -12.198858    -14.915342    9.184130    24.141365    -15.619367    10.559579    1.868061    -16.999569    0.000000    0.000000    0.000000    
-33.390354    153.295837    -105.085861    -2.159017    -3.434090    30.872326    1.043971    -0.328179    0.106724    -6.440882    1.133496    0.099780    5.459771    -0.391173    -15.416433    11.495446    2.487248    -15.537144    6.166270    7.932918    -16.448389    -35.545879    21.352852    -49.800335    -5.307691    -12.409407    -116.988625    0.801280    -20.768171    -6.922614    -15.449523    -4.133104    -5.475755    17.717245    -21.334932    48.016106    -13.627273    -15.964059    46.646088    5.010871    -8.817016    31.506966    27.576250    -8.722033    -0.320278    -11.843266    28.603643    -17.974459    -9.185823    -20.201920    43.824871    0.000000    0.000000    0.000000    -20.547918    -12.182314    -14.913273    9.238110    24.235390    -15.601696    10.507909    1.771993    -17.005192    0.000000    0.000000    0.000000    
-33.431137    153.282471    -104.994164    -2.165069    -3.457722    30.916021    1.049610    -0.327312    0.097348    -6.439985    1.135821    0.096969    5.471231    -0.397548    -15.425923    11.483549    2.506272    -15.552444    6.171058    7.941624    -16.437559    -35.556400    21.348764    -49.771027    -5.312983    -12.393249    -116.987999    0.807795    -20.761099    -6.913111    -15.444268    -4.106767    -5.469714    17.758055    -21.366928    48.000038    -13.658522    -15.883541    46.441490    5.099809    -8.655866    32.948734    27.624092    -8.698400    -0.378650    -11.860978    28.575069    -18.002781    -9.197880    -20.215000    43.865910    0.000000    0.000000    0.000000    -20.528534    -12.161390    -14.936646    9.285127    24.317352    -15.622394    10.465342    1.686663    -16.998652    0.000000    0.000000    0.000000    
-33.472260    153.268158    -104.894272    -2.172320    -3.486732    30.962049    1.042578    -0.320496    0.086023    -6.397479    1.133492    0.091778    5.459137    -0.406559    -15.421213    11.457139    2.518705    -15.550392    6.144626    7.954688    -16.432137    -35.565353    21.339968    -49.735157    -5.344200    -12.370923    -117.003426    0.854106    -20.792521    -6.867429    -15.475471    -4.086260    -5.463343    17.780964    -21.356882    47.982140    -13.680772    -15.885675    46.454273    5.040760    -8.666098    32.902523    27.671492    -8.661633    -0.425499    -11.853148    28.533710    -18.024679    -9.241431    -20.239309    43.863132    0.000000    0.000000    0.000000    -20.504084    -12.134945    -15.028913    9.294679    24.423447    -15.610998    10.386426    1.605738    -16.915180    0.000000    0.000000    0.000000    
-33.515236    153.258057    -104.805733    -2.180645    -3.498487    31.010319    1.040664    -0.308335    0.064290    -6.378503    1.110507    0.085125    5.449331    -0.407268    -15.425822    11.455460    2.536471    -15.555737    6.127796    7.965684    -16.409948    -35.562107    21.368980    -49.716400    -5.345090    -12.399675    -116.995102    0.858679    -20.820223    -6.849789    -15.475983    -4.070743    -5.442322    17.752726    -21.322342    47.943501    -13.708745    -15.922068    46.463509    5.032840    -8.695120    32.846634    27.706074    -8.646205    -0.440360    -11.833140    28.498178    -18.039038    -9.275819    -20.239794    43.845863    0.000000    0.000000    0.000000    -20.494003    -12.119198    -15.105469    9.319274    24.511757    -15.635001    10.366181    1.522619    -16.844669    0.000000    0.000000    0.000000    
-33.565147    153.253998    -104.717651    -2.191532    -3.507251    31.059242    1.045118    -0.286155    0.042044    -6.381478    1.072456    0.072065    5.450697    -0.377779    -15.419117    11.476286    2.502109    -15.541628    6.128759    7.976098    -16.382132    -35.566963    21.388855    -49.698677    -5.364473    -12.394543    -116.991341    0.903543    -20.846588    -6.802191    -15.463674    -4.077315    -5.416886    17.750692    -21.293526    47.910217    -13.712849    -15.925118    46.466599    5.048116    -8.693340    32.809029    27.739771    -8.633342    -0.458855    -11.812018    28.440010    -18.024912    -9.301537    -20.200975    43.821526    0.000000    0.000000    0.000000    -20.477880    -12.102880    -15.184281    9.345754    24.581423    -15.730174    10.293924    1.480340    -16.712624    0.000000    0.000000    0.000000    
